#!OML:ASF F:\VICON\USERDATA\INSTALL\rory3\rory3.ASF
:FULLY-SPECIFIED
:DEGREES
389
root 5.24218 16.9325 2.04563 7.76655 -10.4077 -7.17561
lowerback 20.8341 -1.11326 2.02233
upperback 5.81668 -0.982327 1.42833
thorax -5.32673 -0.512228 0.625812
lowerneck -14.4877 -1.11578 -1.85555
upperneck 38.8097 -1.74332 1.01887
head 16.3693 -0.937751 0.44647
rclavicle 1.31198e-014 3.97569e-015
rhumerus -41.6828 -4.37185 -21.4602
rradius 38.5575
rwrist -0.07649
rhand -14.822 -45.4459
rfingers 7.12502
rthumb 11.3365 -75.1195
lclavicle 1.31198e-014 3.97569e-015
lhumerus -33.1523 8.25161 21.5405
lradius 30.2527
lwrist 14.6586
lhand -25.8469 -27.2277
lfingers 7.12502
lthumb 0.693655 2.75095
rfemur -103.018 -3.01971 28.3462
rtibia 99.4476
rfoot 48.6023 0.729314
rtoes -2.51115
lfemur -30.0932 10.8207 -24.2055
ltibia 43.0881
lfoot -18.9026 2.61041
ltoes 7.34189
390
root 5.23643 16.9311 2.0397 7.86642 -10.311 -7.2147
lowerback 20.8182 -1.10723 1.96188
upperback 5.76295 -0.98414 1.44621
thorax -5.37537 -0.51282 0.680273
lowerneck -14.3325 -1.09752 -1.86766
upperneck 38.7552 -1.71693 1.02937
head 16.3016 -0.927869 0.45869
rclavicle 3.77691e-014 -3.02153e-014
rhumerus -41.8448 -4.23973 -21.198
rradius 38.4742
rwrist -0.174633
rhand -14.7701 -45.2559
rfingers 7.12502
rthumb 11.3865 -74.9268
lclavicle 3.77691e-014 -3.02153e-014
lhumerus -33.0782 8.32395 21.3941
lradius 29.9516
lwrist 14.6795
lhand -25.5843 -27.5898
lfingers 7.12502
lthumb 0.947273 2.38783
rfemur -103.066 -3.10891 28.4547
rtibia 99.1074
rfoot 48.7107 0.441521
rtoes -2.50008
lfemur -30.315 10.8702 -24.1615
ltibia 43.1953
lfoot -18.8603 2.61781
ltoes 6.52127
391
root 5.22594 16.926 2.02809 7.99995 -10.2427 -7.34036
lowerback 20.8024 -1.06444 1.93057
upperback 5.76795 -0.934734 1.45766
thorax -5.36102 -0.48857 0.697663
lowerneck -14.5383 -1.13719 -1.79849
upperneck 38.8476 -1.81478 1.07678
head 16.4035 -0.950239 0.448896
rclavicle -2.8625e-014 -1.27222e-014
rhumerus -41.9113 -4.47674 -20.9288
rradius 38.1242
rwrist 0.0430855
rhand -15.0548 -44.8171
rfingers 7.12502
rthumb 11.1119 -74.5029
lclavicle -2.8625e-014 -1.27222e-014
lhumerus -33.0184 8.34344 21.2911
lradius 29.9062
lwrist 14.699
lhand -25.9427 -27.5002
lfingers 7.12502
lthumb 0.601071 2.4787
rfemur -103.122 -3.04922 28.6404
rtibia 98.7579
rfoot 48.7239 0.0425757
rtoes -2.04437
lfemur -30.5994 11.0101 -24.0092
ltibia 43.3112
lfoot -18.8343 2.55087
ltoes 5.72025
392
root 5.215 16.9242 2.01802 8.04226 -10.189 -7.39709
lowerback 20.9538 -1.01888 1.79917
upperback 5.74653 -0.896685 1.46687
thorax -5.46073 -0.469645 0.776031
lowerneck -14.7449 -1.17031 -1.60326
upperneck 39.0892 -1.84765 0.868006
head 16.5787 -0.963277 0.314758
rclavicle 1.74931e-014 1.59028e-015
rhumerus -41.9008 -4.7949 -20.598
rradius 37.5844
rwrist 0.250135
rhand -15.6246 -44.2702
rfingers 7.12502
rthumb 10.5623 -73.9848
lclavicle 1.74931e-014 1.59028e-015
lhumerus -33.1236 8.27463 21.2077
lradius 29.9408
lwrist 14.8141
lhand -26.7381 -27.9695
lfingers 7.12502
lthumb -0.167089 2.01022
rfemur -103.103 -3.01913 28.7448
rtibia 98.4562
rfoot 48.6171 -0.53274
rtoes -1.99057
lfemur -30.7587 11.1553 -23.9142
ltibia 43.3804
lfoot -18.814 2.45722
ltoes 5.31856
393
root 5.20795 16.9283 2.01764 7.98486 -10.1626 -7.35131
lowerback 21.0716 -1.00882 1.60789
upperback 5.71205 -0.919982 1.44958
thorax -5.55677 -0.479889 0.874991
lowerneck -14.6413 -1.14865 -1.42737
upperneck 39.176 -1.77417 0.609045
head 16.5916 -0.944478 0.18212
rclavicle -1.03368e-014 7.15625e-015
rhumerus -41.9028 -4.80929 -20.3239
rradius 37.3739
rwrist 0.258572
rhand -15.3852 -44.2488
rfingers 7.12502
rthumb 10.7933 -73.9515
lclavicle -1.03368e-014 7.15625e-015
lhumerus -33.5056 7.96969 21.1336
lradius 30.2659
lwrist 15.2187
lhand -26.6391 -29.0415
lfingers 7.12502
lthumb -0.0714851 0.938269
rfemur -102.976 -3.09803 28.7334
rtibia 98.2058
rfoot 48.4964 -0.236644
rtoes -3.00168
lfemur -30.7212 11.2658 -23.9342
ltibia 43.4005
lfoot -18.8274 2.43687
ltoes 4.92471
394
root 5.20293 16.9321 2.02244 7.93359 -10.1027 -7.42527
lowerback 20.9955 -1.0263 1.64624
upperback 5.76462 -0.939475 1.42936
thorax -5.46131 -0.489436 0.834091
lowerneck -14.4924 -1.18196 -1.56593
upperneck 38.9292 -1.89058 0.898249
head 16.4309 -0.973129 0.315239
rclavicle 1.98785e-015 -5.56597e-015
rhumerus -41.9376 -4.93394 -20.0368
rradius 37.2195
rwrist 0.442182
rhand -14.6795 -44.2504
rfingers 7.12502
rthumb 11.4739 -73.9164
lclavicle 1.98785e-015 -5.56597e-015
lhumerus -33.7438 7.83753 21.0164
lradius 30.5617
lwrist 15.3686
lhand -26.0429 -29.7527
lfingers 7.12502
lthumb 0.504299 0.226429
rfemur -102.755 -3.22521 28.8431
rtibia 97.9591
rfoot 48.4659 0.741371
rtoes -3.56521
lfemur -30.5856 11.3602 -23.8245
ltibia 43.3614
lfoot -18.8959 2.37163
ltoes 4.73503
395
root 5.19721 16.9356 2.02772 7.93484 -10.0058 -7.55044
lowerback 20.9206 -1.04327 1.72665
upperback 5.7782 -0.946686 1.43561
thorax -5.40883 -0.493208 0.795159
lowerneck -14.4609 -1.21486 -1.71497
upperneck 38.8287 -2.01823 1.22244
head 16.3797 -1.00289 0.462001
rclavicle -7.95139e-015 1.74931e-014
rhumerus -42.0349 -5.10689 -19.7254
rradius 37.0025
rwrist 0.615315
rhand -14.5714 -44.2125
rfingers 7.12502
rthumb 11.5781 -73.8726
lclavicle -7.95139e-015 1.74931e-014
lhumerus -33.821 7.80427 20.8569
lradius 30.63
lwrist 15.3716
lhand -26.1596 -29.1186
lfingers 7.12502
lthumb 0.391588 0.860754
rfemur -102.585 -3.34459 28.9955
rtibia 97.7327
rfoot 48.5615 1.28314
rtoes -3.55
lfemur -30.4767 11.4261 -23.6638
ltibia 43.2785
lfoot -18.9158 2.23995
ltoes 5.0321
396
root 5.19327 16.9417 2.03482 7.89859 -9.92128 -7.47802
lowerback 20.9347 -1.07223 1.56735
upperback 5.72796 -1.01679 1.40641
thorax -5.46855 -0.526155 0.873046
lowerneck -14.4516 -1.16852 -1.6597
upperneck 38.9622 -1.95972 1.19162
head 16.4454 -0.976475 0.448925
rclavicle -9.14409e-015 0
rhumerus -42.0807 -5.15438 -19.4698
rradius 36.8658
rwrist 0.546749
rhand -15.0057 -44.2151
rfingers 7.12502
rthumb 11.1593 -73.8983
lclavicle -9.14409e-015 0
lhumerus -33.9065 7.98349 20.5126
lradius 30.6313
lwrist 15.7112
lhand -25.7754 -28.2359
lfingers 7.12502
lthumb 0.762695 1.74246
rfemur -102.495 -3.51679 28.9352
rtibia 97.5652
rfoot 48.6303 1.13349
rtoes -3.43918
lfemur -30.3441 11.4016 -23.7182
ltibia 43.1742
lfoot -18.9168 2.14387
ltoes 5.26559
397
root 5.18874 16.9451 2.03734 7.8159 -9.8219 -7.327
lowerback 20.9234 -1.12074 1.34333
upperback 5.73852 -1.13029 1.34149
thorax -5.44835 -0.579685 0.958881
lowerneck -14.4378 -1.1168 -1.6282
upperneck 39.0277 -1.88313 1.16097
head 16.474 -0.946094 0.443231
rclavicle -4.37326e-015 7.95139e-016
rhumerus -42.0537 -5.11577 -19.3143
rradius 36.9077
rwrist 0.248929
rhand -15.1154 -44.5063
rfingers 7.12502
rthumb 11.0534 -74.1952
lclavicle -4.37326e-015 7.95139e-016
lhumerus -34.0101 8.40136 20.1126
lradius 30.6673
lwrist 15.8176
lhand -24.8735 -27.8647
lfingers 7.12502
lthumb 1.63378 2.10876
rfemur -102.429 -3.72004 28.7919
rtibia 97.427
rfoot 48.539 0.604897
rtoes -2.90829
lfemur -30.204 11.3213 -23.839
ltibia 43.0725
lfoot -18.8933 2.0268
ltoes 5.48925
398
root 5.1831 16.9495 2.03324 7.76955 -9.67265 -7.38276
lowerback 20.9171 -1.17989 1.34907
upperback 5.77319 -1.20739 1.32648
thorax -5.40762 -0.61708 0.958077
lowerneck -14.3445 -1.09836 -1.60976
upperneck 38.9677 -1.85906 1.15562
head 16.4179 -0.935203 0.442088
rclavicle -4.49253e-014 1.51076e-014
rhumerus -42.0723 -4.91054 -19.22
rradius 37.0806
rwrist -0.312049
rhand -14.7229 -45.3504
rfingers 7.12502
rthumb 11.432 -75.0187
lclavicle -4.49253e-014 1.51076e-014
lhumerus -34.1963 8.30779 20.0354
lradius 30.775
lwrist 15.3942
lhand -25.3361 -26.8365
lfingers 7.12502
lthumb 1.18695 3.1399
rfemur -102.295 -3.88939 28.8623
rtibia 97.2377
rfoot 48.432 0.183267
rtoes -2.56776
lfemur -30.1305 11.268 -23.7339
ltibia 43.0009
lfoot -18.8187 1.87762
ltoes 5.96874
399
root 5.18059 16.9553 2.02921 7.79576 -9.48393 -7.49016
lowerback 20.9389 -1.24495 1.45503
upperback 5.75432 -1.2674 1.34054
thorax -5.44072 -0.646576 0.92872
lowerneck -14.2254 -1.121 -1.69164
upperneck 38.908 -1.90907 1.2616
head 16.3605 -0.954088 0.495017
rclavicle -6.36111e-015 1.43125e-014
rhumerus -42.1156 -4.86849 -19.0256
rradius 37.0692
rwrist -0.790238
rhand -14.623 -45.9533
rfingers 7.12502
rthumb 11.5283 -75.6163
lclavicle -6.36111e-015 1.43125e-014
lhumerus -34.5233 7.85628 20.0637
lradius 31.313
lwrist 15.7083
lhand -25.675 -25.2295
lfingers 7.12502
lthumb 0.859596 4.74853
rfemur -102.237 -4.10357 29.0056
rtibia 97.0533
rfoot 48.337 0.632096
rtoes -3.42156
lfemur -30.1585 11.185 -23.6009
ltibia 42.9628
lfoot -18.7123 1.73318
ltoes 6.38422
400
root 5.175 16.9564 2.02353 7.87179 -9.40361 -7.54501
lowerback 20.9623 -1.25004 1.42412
upperback 5.69772 -1.27641 1.36504
thorax -5.51276 -0.65058 0.976417
lowerneck -14.2105 -1.1544 -1.85801
upperneck 38.9918 -1.96435 1.40246
head 16.407 -0.982672 0.577359
rclavicle -1.39149e-014 1.27222e-014
rhumerus -42.1368 -5.02404 -18.7784
rradius 36.8868
rwrist -1.09574
rhand -15.0021 -45.801
rfingers 7.12502
rthumb 11.1627 -75.4841
lclavicle -1.39149e-014 1.27222e-014
lhumerus -34.7928 7.64853 19.9281
lradius 32.0153
lwrist 16.8327
lhand -24.7148 -23.6721
lfingers 7.12502
lthumb 1.787 6.30018
rfemur -102.301 -4.15097 29.0541
rtibia 96.9001
rfoot 48.299 1.04767
rtoes -4.02718
lfemur -30.2884 11.1507 -23.5317
ltibia 42.9589
lfoot -18.6123 1.65625
ltoes 6.37569
401
root 5.16692 16.9604 2.0205 7.85666 -9.49937 -7.66667
lowerback 21.0641 -1.17791 1.36796
upperback 5.66354 -1.18873 1.40739
thorax -5.601 -0.607837 1.0348
lowerneck -14.2519 -1.15746 -1.90946
upperneck 39.1265 -1.94339 1.37488
head 16.4888 -0.985707 0.578442
rclavicle -2.94201e-014 -1.59028e-015
rhumerus -42.1224 -5.20082 -18.4805
rradius 36.5772
rwrist -1.29368
rhand -15.5992 -45.0265
rfingers 7.12502
rthumb 10.5867 -74.7398
lclavicle -2.94201e-014 -1.59028e-015
lhumerus -34.7421 7.85342 19.7104
lradius 32.034
lwrist 17.2031
lhand -23.5181 -23.0453
lfingers 7.12502
lthumb 2.94278 6.91411
rfemur -102.161 -3.97703 29.1198
rtibia 96.7041
rfoot 48.4732 0.849874
rtoes -3.67332
lfemur -30.2691 11.251 -23.3673
ltibia 42.9657
lfoot -18.5951 1.67644
ltoes 6.24728
